<?xml version="1.0" encoding="utf-8"?>
<!-- Generator: Adobe Illustrator 27.3.1, SVG Export Plug-In . SVG Version: 6.00 Build 0)  -->
<svg version="1.1" id="Layer_1" xmlns="http://www.w3.org/2000/svg" xmlns:xlink="http://www.w3.org/1999/xlink" x="0px" y="0px"
	 viewBox="0 0 85.3 96.4" style="enable-background:new 0 0 85.3 96.4;" xml:space="preserve">
<style type="text/css">
	.st0{fill:#FFFFFF;}
</style>
<g>
	<path class="st0" d="M30.2,33.7c-2.5-7.3-10.5-21.1-10.7-21.3c0,0.4,7.7,20.2,7.6,20.3l-8.6,6.3c0.6,0.7,1.1,1.2,1.7,1.8
		c2.7-1.6,5.3-3.1,8-4.7c0.6,2.2,2.5,8.7,2.4,8.7c-0.1,0.2,0,0-1.6,1.7c0.7-0.4,1.2-0.7,1.8-1c1.3,5.4,2.7,10.7,2.9,16.2
		c-2.9-4.3-5.7-8.6-8.8-12.7c-3.1-4.1-6.5-7.9-9.8-11.9l1.6,3c-1.5,1.5-3,2.9-4.5,4.3c0.5,0.5,0.9,1,1.4,1.5
		c1.5-1.2,2.9-2.3,4.4-3.4c0.2,0.2,9,13.7,12.7,20.8l0.1,1.2l0.4-0.2c1.3,1.2,5.8,12.7,6,15.3c-1.2-0.3-2.3-0.6-3.6-0.9
		c0.3,1.2,0.5,2.2,0.8,3.2l6.7,3.8c-0.1-0.9-1.9-15.2-3-21.6C36.1,53.7,33.7,43.6,30.2,33.7"/>
	<path class="st0" d="M17.8,67.6C14.4,57.3,11,47.2,7.6,37.2l1.6,10.4c-0.1,0.3-6,8-8.7,11.6C0.3,59.4,0.2,59.7,0,60c0,0,0,0,0.1,0
		c3.1-3.6,6.2-7.3,9.4-11c2.7,9.9,5.3,19.5,7.9,29.2c2.4-2.7,4.6-5.3,6.9-7.9c3.4,7.9,6.8,15.6,10.2,23.4c-2.7-0.4-5.2-0.9-7.8-1.3
		l9.2,3.9c-3.5-12.9-7-26.1-10.6-39.5C22.7,60.6,20.3,64,17.8,67.6"/>
	<path class="st0" d="M54.2,33.1c0.2-0.5,0.4-1.1,0.6-1.7c-1.1-0.4-2.2-0.8-3.5-1.3c6.3-16.4,6.3-16.4,6.3-16.4
		c-1.8,2.9-3.7,5.8-5.3,8.8c-4.2,7.6-7.3,15.7-9.6,24.1c0,0.2-0.1,0.3-0.1,0.5c0-0.2-0.1-0.3-0.1-0.5c-2.3-8.4-5.4-16.5-9.6-24.1
		c-1.6-3-3.5-5.9-5.3-8.8c-0.1,0,0,0,6.3,16.4c-1.3,0.5-2.4,0.8-3.5,1.3c0.2,0.6,0.4,1.2,0.6,1.7c1.1-0.4,2.2-0.7,3.4-1
		c4.9,13.6,6.5,27.8,8.2,42.1c0,0,0,0.1,0,0.1c0,0,0,0,0,0c0,0,0,0,0,0c0,0,0-0.1,0-0.1C44.4,59.8,46,45.6,50.9,32
		C52,32.4,53.1,32.7,54.2,33.1"/>
	<path class="st0" d="M46.4,31.5c0.1-0.2,0.8-1.6,1.1-2.3l-2.9-0.2C42.7,0,43.1,5.8,42.7,0c0,0,0,0-0.1,0s0,0-0.1,0
		c-0.4,5.8,0,0-2,28.9l-2.9,0.2c0.3,0.7,1,2.1,1.1,2.3H46.4z"/>
	<path class="st0" d="M52,78.7c-1.3,0.3-2.5,0.6-3.6,0.9c0.2-2.5,4.7-14.1,6-15.3l0.4,0.2l0.1-1.2c3.7-7.1,12.5-20.7,12.7-20.8
		c1.5,1.2,2.9,2.3,4.4,3.4c0.4-0.5,0.9-0.9,1.4-1.5c-1.5-1.4-3-2.8-4.5-4.3l1.6-3c-3.3,4-6.7,7.8-9.8,11.9
		c-3.1,4.1-5.9,8.4-8.8,12.7c0.2-5.5,1.6-10.8,2.9-16.2c0.6,0.3,1.1,0.6,1.8,1c-1.6-1.7-1.5-1.6-1.6-1.7c0-0.1,1.8-6.6,2.4-8.7
		c2.7,1.6,5.3,3.1,8,4.7c0.5-0.6,1.1-1.2,1.7-1.8l-8.6-6.3c-0.1-0.1,7.6-19.9,7.6-20.3c-0.2,0.2-8.2,14.1-10.7,21.3
		c-3.5,9.9-5.9,20.1-7.7,30.4c-1.1,6.4-2.9,20.7-3,21.6l6.7-3.8C51.5,80.9,51.7,79.9,52,78.7"/>
	<path class="st0" d="M84.8,59.1c-2.7-3.6-8.6-11.3-8.7-11.6l1.6-10.4C74.4,47.2,71,57.3,67.5,67.6c-2.5-3.6-4.9-7.1-7.4-10.7
		C56.5,70.3,53,83.5,49.5,96.4l9.2-3.9c-2.5,0.4-5.1,0.8-7.8,1.3c3.4-7.9,6.8-15.6,10.2-23.4c2.3,2.6,4.5,5.2,6.9,7.9
		c2.6-9.8,5.2-19.4,7.9-29.2c3.2,3.8,6.3,7.4,9.4,11c0,0,0,0,0.1,0C85.2,59.7,85,59.4,84.8,59.1"/>
</g>
</svg>
